<svg width="32" height="32" viewBox="0 0 32 32" fill="none" xmlns="http://www.w3.org/2000/svg">
<rect width="32.0045" height="32" rx="16" fill="#EE6A23"/>
<path d="M22.5178 20.8853L19.909 18.2765C19.7912 18.1587 19.6316 18.0933 19.4641 18.0933H19.0376C19.7598 17.1696 20.189 16.0079 20.189 14.744C20.189 11.7375 17.7529 9.30139 14.7463 9.30139C11.7398 9.30139 9.30371 11.7375 9.30371 14.744C9.30371 17.7505 11.7398 20.1866 14.7463 20.1866C16.0102 20.1866 17.172 19.7575 18.0956 19.0353V19.4618C18.0956 19.6293 18.1611 19.7889 18.2788 19.9066L20.8876 22.5154C21.1336 22.7614 21.5313 22.7614 21.7746 22.5154L22.5151 21.7749C22.7611 21.529 22.7611 21.1312 22.5178 20.8853ZM14.7463 18.0933C12.8964 18.0933 11.397 16.5966 11.397 14.744C11.397 12.894 12.8937 11.3947 14.7463 11.3947C16.5963 11.3947 18.0956 12.8914 18.0956 14.744C18.0956 16.594 16.5989 18.0933 14.7463 18.0933Z" fill="white"/>
</svg>
