<svg width="13" height="13" viewBox="0 0 13 13" fill="none" xmlns="http://www.w3.org/2000/svg">
<path d="M12.2702 9.55694L10.398 8.24885C10.1533 8.07839 9.86685 7.98822 9.57023 7.98822C9.09836 7.98822 8.65556 8.21964 8.38575 8.60684L7.95113 9.22956C7.22272 8.74118 6.40965 8.05905 5.63495 7.2845C4.86054 6.5098 4.17841 5.69687 3.68989 4.96846L4.31247 4.53412C4.62997 4.313 4.84163 3.9821 4.90908 3.60195C4.97625 3.2225 4.89158 2.83882 4.67032 2.52119L3.36251 0.649077C2.99422 0.122171 2.2977 -0.108403 1.71124 0.108483C1.54022 0.171842 1.38104 0.249311 1.22441 0.347383L0.965617 0.529697C0.90127 0.579933 0.84144 0.634683 0.783867 0.692115C0.468344 1.00764 0.244261 1.4067 0.118391 1.87857C-0.42065 3.89898 0.914535 6.95346 3.44041 9.47919C5.56157 11.6004 8.10974 12.9182 10.0909 12.9183C10.4299 12.9183 10.7499 12.8788 11.0414 12.8011C11.5128 12.675 11.9118 12.4512 12.2273 12.1357C12.2849 12.0783 12.3399 12.0183 12.3986 11.9421L12.5807 11.6821C12.6704 11.5385 12.748 11.3791 12.811 11.2082C13.0314 10.6129 12.8093 9.93384 12.2702 9.55694Z" fill="#EF7220"/>
</svg>
