<svg width="31" height="32" viewBox="0 0 31 32" fill="none" xmlns="http://www.w3.org/2000/svg">
<path fill-rule="evenodd" clip-rule="evenodd" d="M10.6817 20.134C10.4603 20.3554 10.4603 20.7143 10.6817 20.9357C10.903 21.157 11.2619 21.157 11.4833 20.9357L15.6174 16.8016L19.7514 20.9357C19.9728 21.157 20.3317 21.157 20.5531 20.9357C20.7745 20.7143 20.7745 20.3554 20.5531 20.134L16.419 15.9999L20.5531 11.8659C20.7745 11.6445 20.7745 11.2856 20.5531 11.0642C20.3317 10.8429 19.9728 10.8429 19.7514 11.0642L15.6174 15.1983L11.4833 11.0642C11.2619 10.8429 10.903 10.8429 10.6817 11.0642C10.4603 11.2856 10.4603 11.6445 10.6817 11.8659L14.8157 15.9999L10.6817 20.134Z" fill="black"/>
</svg>
