<svg width="14" height="15" viewBox="0 0 14 15" fill="none" xmlns="http://www.w3.org/2000/svg">
<g clip-path="url(#clip0_4681_90550)">
<path d="M2.05601 0H9.1648C9.7302 0 10.2442 0.230558 10.6172 0.603274C10.9901 0.975989 11.2208 1.48967 11.2208 2.05471V6.63721C11.2208 7.20225 10.9901 7.71593 10.6172 8.08865C10.2442 8.46136 9.7302 8.69192 9.1648 8.69192H5.60981L2.48754 11.3738C2.3429 11.498 2.12415 11.4813 1.99983 11.3356C1.93887 11.2639 1.91138 11.1755 1.91735 11.0883L2.08351 8.69072H2.05601C1.49061 8.69072 0.976606 8.46017 0.603655 8.08745C0.230704 7.71593 0 7.20225 0 6.63721V2.05471C0 1.48967 0.230704 0.975989 0.603655 0.603274C0.975411 0.230558 1.48941 0 2.05601 0ZM12.2297 3.34249C12.6325 3.42014 12.9935 3.61845 13.2732 3.89798C13.6378 4.26234 13.8649 4.76526 13.8649 5.31956V9.90205C13.8649 10.4563 13.639 10.9593 13.2732 11.3236C12.9087 11.688 12.4054 11.915 11.8508 11.915H11.7778L11.9476 14.3567C11.9524 14.4332 11.9297 14.512 11.8759 14.5741C11.7671 14.702 11.5746 14.7163 11.4479 14.6076L8.31371 11.8361H4.18494L6.21825 9.76945H10.5263C11.4659 9.76945 12.2357 9.00132 12.2357 8.06117V3.47748C12.2345 3.43209 12.2333 3.38669 12.2297 3.34249ZM3.06968 5.21802C2.87842 5.21802 2.72302 5.06272 2.72302 4.87158C2.72302 4.68045 2.87842 4.52515 3.06968 4.52515H6.69758C6.88884 4.52515 7.04424 4.68045 7.04424 4.87158C7.04424 5.06272 6.88884 5.21802 6.69758 5.21802H3.06968ZM3.06968 3.50257C2.87842 3.50257 2.72302 3.34727 2.72302 3.15614C2.72302 2.965 2.87842 2.8097 3.06968 2.8097H8.2121C8.40336 2.8097 8.55875 2.965 8.55875 3.15614C8.55875 3.34727 8.40336 3.50257 8.2121 3.50257H3.06968ZM9.1636 0.692869H2.05601C1.68187 0.692869 1.34119 0.845778 1.09375 1.09306C0.846312 1.34034 0.693307 1.67961 0.693307 2.05471V6.63721C0.693307 7.01112 0.846312 7.35158 1.09375 7.59886C1.34119 7.84614 1.68187 7.99905 2.05601 7.99905H2.45526V8.00025L2.47797 8.00144C2.66804 8.01458 2.81267 8.17944 2.79953 8.36938L2.66445 10.3118L5.23925 8.0994C5.30141 8.03728 5.38747 7.99905 5.4831 7.99905H9.1636C9.53775 7.99905 9.87843 7.84614 10.1259 7.59886C10.3733 7.35158 10.5263 7.01112 10.5263 6.63721V2.05471C10.5263 1.6808 10.3733 1.34034 10.1259 1.09306C9.87962 0.845778 9.53895 0.692869 9.1636 0.692869Z" fill="white"/>
</g>
<defs>
<clipPath id="clip0_4681_90550">
<rect width="13.8637" height="14.6793" fill="white"/>
</clipPath>
</defs>
</svg>
