<svg width="14" height="15" viewBox="0 0 14 15" fill="none" xmlns="http://www.w3.org/2000/svg">
<g clip-path="url(#clip0_3392_16882)">
<path d="M4.26731 1.83127H9.73542V0.644212C9.73542 0.609429 9.87048 0.3676 9.90712 0.32067C10.2877 -0.162435 11.197 -0.0917638 11.4874 0.475816C11.5109 0.522194 11.5946 0.72703 11.5946 0.754084V1.83072C12.7139 1.69379 13.8392 2.02341 14 3.29439L13.9945 13.5572C13.8414 14.3738 13.2602 14.8585 12.4443 14.9182C8.90974 15.1766 5.07058 14.7183 1.50373 14.9182C0.70648 14.8602 0.069445 14.2656 0 13.4551L0.00765535 3.24525C0.200133 2.00353 1.30961 1.70042 2.40761 1.83127V0.754636C2.40761 0.727582 2.49072 0.522746 2.51478 0.476368C2.80459 -0.0912117 3.71394 -0.161883 4.09507 0.321222C4.1317 0.368152 4.26677 0.609981 4.26677 0.644764V1.83182L4.26731 1.83127ZM3.26993 0.460908C3.12338 0.478576 2.93091 0.597834 2.90138 0.756293C2.96754 1.55797 2.80733 2.51369 2.89864 3.29549C2.96043 3.82332 3.74839 3.78578 3.82604 3.29108C3.89384 2.85987 3.88236 1.31725 3.83041 0.863956C3.79706 0.573541 3.54498 0.427781 3.26993 0.460908ZM10.5972 0.460908C10.396 0.484098 10.209 0.599491 10.1762 0.813161C10.1089 1.24492 10.1182 2.7892 10.1712 3.24028C10.2412 3.83381 11.0368 3.74216 11.1008 3.40371C11.0243 2.59541 11.2063 1.58944 11.1046 0.807088C11.0729 0.563603 10.8367 0.433855 10.5972 0.461461V0.460908ZM2.40816 2.32818C1.80229 2.35965 1.16471 2.16806 0.721244 2.69534C0.639222 2.79306 0.439636 3.18562 0.439636 3.29439V5.30963H13.5631V3.29439C13.5631 3.18617 13.3635 2.79306 13.2815 2.69534C12.838 2.16806 12.2004 2.35965 11.5946 2.32818V3.40481C11.5946 3.4788 11.3972 3.83491 11.3239 3.90448C11.0368 4.17723 10.4966 4.22582 10.1532 4.03257C10.0411 3.96963 9.73597 3.6367 9.73597 3.51524V2.32818H4.26786V3.51524C4.26786 3.6367 3.96274 3.96908 3.85064 4.03257C3.50725 4.22582 2.967 4.17723 2.67992 3.90448C2.60665 3.83491 2.40925 3.4788 2.40925 3.40481V2.32818H2.40816ZM0.439636 5.83414V13.3982C0.439636 13.4341 0.538062 13.767 0.562668 13.8261C0.756786 14.2832 1.2686 14.4461 1.72191 14.4776C5.17666 14.7178 8.90318 14.2937 12.3864 14.4743C12.8572 14.4262 13.2957 14.2137 13.4652 13.7416C13.4844 13.6886 13.5631 13.4236 13.5631 13.3987V5.83414H0.439636Z" fill="#EF7221"/>
<path d="M1.60135 10.4864C1.5073 10.3903 1.43512 8.95205 1.69759 8.81513C2.43962 8.84052 3.41731 8.68759 4.13364 8.78476C4.34471 8.81347 4.40923 8.93935 4.43274 9.14529C4.46227 9.40148 4.49289 10.4185 4.2676 10.5273L1.60081 10.4864H1.60135ZM3.94006 9.28498H2.02623V10.1132C2.65561 10.0618 3.31506 9.99777 3.94006 10.1132V9.28498Z" fill="#EF7221"/>
<path d="M12.4012 10.4864L9.73436 10.5272C9.50908 10.419 9.5397 9.40147 9.56923 9.14529C9.59329 8.93935 9.65726 8.81346 9.86833 8.78475C10.3271 8.72236 11.5804 8.74058 12.061 8.78475C12.2114 8.79856 12.3563 8.80739 12.428 8.9664C12.4996 9.12541 12.5034 10.3815 12.4006 10.4858L12.4012 10.4864ZM11.9768 9.28498H10.063V10.1132C10.6989 9.99776 11.336 10.101 11.9768 10.1132V9.28498Z" fill="#EF7221"/>
<path d="M1.60164 8.11172C1.50814 8.0013 1.5147 6.97822 1.53165 6.77062C1.5568 6.46199 1.58414 6.4377 1.88708 6.41175C2.39671 6.36868 3.65054 6.34549 4.13392 6.41175C4.34499 6.44046 4.40952 6.56634 4.43303 6.77228C4.46256 7.02847 4.49318 8.04547 4.26789 8.15424L1.60164 8.11283V8.11172ZM3.93981 6.85565L2.02597 6.91086V7.68383H3.93981V6.85565Z" fill="#EF7221"/>
<path d="M12.4026 6.4819C12.5147 6.59619 12.5103 8.03667 12.3807 8.12998C12.2976 8.17084 12.2084 8.17581 12.1171 8.18243C11.5845 8.22108 10.3717 8.2509 9.87029 8.18243C9.65922 8.15372 9.59469 8.02784 9.57118 7.8219C9.54165 7.56571 9.51103 6.54871 9.73632 6.43994L12.4031 6.4808L12.4026 6.4819ZM11.9782 6.85569H10.0644V7.68387H11.9782V6.85569Z" fill="#EF7221"/>
<path d="M9.82805 11.1738C10.5307 11.197 11.3121 11.102 12.0055 11.16C12.2849 11.1832 12.4336 11.2086 12.4691 11.52C12.4927 11.7237 12.4943 12.7197 12.4095 12.8417C12.3505 12.9262 12.3171 12.9213 12.2253 12.9317C11.9655 12.9616 9.78376 12.9743 9.67768 12.903C9.52621 12.6463 9.50543 11.4487 9.65416 11.2743C9.69846 11.2224 9.76188 11.1893 9.82805 11.1738ZM11.9765 11.6591H10.0626V12.4873H11.9765V11.6591Z" fill="#EF7221"/>
<path d="M1.84784 11.1754C2.26068 11.0993 3.5178 11.1219 3.96946 11.16C4.14444 11.1749 4.34567 11.1898 4.40801 11.3797C4.47034 11.5697 4.4605 12.744 4.35059 12.8743C4.24834 12.9958 1.97634 12.9152 1.64278 12.9019C1.56131 12.8279 1.5449 12.7297 1.53288 12.6264C1.50827 12.4061 1.49952 11.3957 1.61654 11.2737C1.66958 11.2185 1.77292 11.1898 1.84784 11.176V11.1754ZM3.93994 11.6591H2.0261V12.4873H3.93994V11.6591Z" fill="#EF7221"/>
<path d="M5.78316 8.80027C6.14242 8.72132 7.65107 8.74782 8.06992 8.78536C8.26568 8.80303 8.39965 8.80358 8.4259 9.03327C8.44613 9.20994 8.4434 10.3457 8.39582 10.4445C8.35153 10.5356 8.26732 10.5455 8.17929 10.5571C7.43891 10.6537 6.453 10.5025 5.68856 10.5273C5.59725 10.4765 5.58904 10.4025 5.57701 10.3087C5.55678 10.148 5.56498 8.96867 5.60599 8.89744C5.63388 8.84941 5.72739 8.81242 5.78261 8.79972L5.78316 8.80027ZM7.98572 9.28503H6.0172L6.06914 10.0862C6.70016 10.0221 7.33775 10.111 7.96002 10.0613L7.98572 9.28503Z" fill="#EF7221"/>
<path d="M5.72789 6.42505L8.3143 6.44106C8.40562 6.49186 8.41382 6.56584 8.42585 6.6597C8.44608 6.81705 8.43843 7.99914 8.39687 8.07092C8.34164 8.16478 8.16994 8.17417 8.07097 8.18355C7.52963 8.23269 6.47428 8.23269 5.93349 8.18355C5.78803 8.1703 5.61251 8.16533 5.58079 7.98755C5.554 7.83792 5.56548 6.61167 5.60813 6.52388C5.63055 6.4775 5.67977 6.4394 5.72898 6.42505H5.72789ZM7.98621 6.91091L6.10737 6.86343C5.93294 6.92085 6.05105 7.51549 6.0177 7.68388H7.98621V6.91091Z" fill="#EF7221"/>
<path d="M5.64783 11.2306C5.7561 11.1865 5.87093 11.1694 5.98795 11.16C6.53476 11.1175 7.4698 11.1153 8.01498 11.16C8.22222 11.1771 8.39774 11.1743 8.42618 11.4073C8.44696 11.579 8.44258 12.7219 8.3961 12.8185C8.35181 12.9096 8.2676 12.9196 8.17956 12.9312C7.43918 13.0278 6.45328 12.8765 5.68884 12.9014C5.59752 12.85 5.58932 12.7766 5.57729 12.6827C5.55269 12.4911 5.55706 11.3096 5.64783 11.2301V11.2306ZM7.98599 11.6591H6.01747L6.06887 12.463H7.93514L7.98654 11.6591H7.98599Z" fill="#EF7221"/>
</g>
<defs>
<clipPath id="clip0_3392_16882">
<rect width="14" height="15" fill="white"/>
</clipPath>
</defs>
</svg>
