<svg width="21" height="20" viewBox="0 0 21 20" fill="none" xmlns="http://www.w3.org/2000/svg">
<path d="M10.1812 0C12.8997 0 13.2388 0.00999994 14.3054 0.0599999C15.371 0.11 16.0963 0.277 16.7347 0.525C17.395 0.779 17.9513 1.123 18.5076 1.678C19.0163 2.1779 19.41 2.78259 19.6612 3.45C19.9083 4.087 20.0764 4.813 20.1264 5.878C20.1735 6.944 20.1865 7.283 20.1865 10C20.1865 12.717 20.1765 13.056 20.1264 14.122C20.0764 15.187 19.9083 15.912 19.6612 16.55C19.4107 17.2178 19.017 17.8226 18.5076 18.322C18.0073 18.8303 17.4023 19.2238 16.7347 19.475C16.0973 19.722 15.371 19.89 14.3054 19.94C13.2388 19.987 12.8997 20 10.1812 20C7.46283 20 7.12365 19.99 6.05709 19.94C4.99154 19.89 4.26616 19.722 3.62783 19.475C2.9598 19.2245 2.35469 18.8309 1.8549 18.322C1.34604 17.8222 0.952362 17.2175 0.701299 16.55C0.45317 15.913 0.286083 15.187 0.236057 14.122C0.189032 13.056 0.176025 12.717 0.176025 10C0.176025 7.283 0.186031 6.944 0.236057 5.878C0.286083 4.812 0.45317 4.088 0.701299 3.45C0.951666 2.78218 1.34544 2.17732 1.8549 1.678C2.35483 1.16923 2.95991 0.775729 3.62783 0.525C4.26616 0.277 4.99054 0.11 6.05709 0.0599999C7.12365 0.0129999 7.46283 0 10.1812 0ZM10.1812 5C8.85447 5 7.58204 5.52678 6.64387 6.46447C5.70569 7.40215 5.17864 8.67392 5.17863 10C5.17864 11.3261 5.70569 12.5979 6.64387 13.5355C7.58204 14.4732 8.85447 15 10.1812 15C11.508 15 12.7805 14.4732 13.7186 13.5355C14.6568 12.5979 15.1839 11.3261 15.1839 10C15.1839 8.67392 14.6568 7.40215 13.7186 6.46447C12.7805 5.52678 11.508 5 10.1812 5ZM16.6846 4.75C16.6846 4.41848 16.5529 4.10054 16.3183 3.86612C16.0838 3.6317 15.7657 3.5 15.434 3.5C15.1023 3.5 14.7842 3.6317 14.5496 3.86612C14.3151 4.10054 14.1833 4.41848 14.1833 4.75C14.1833 5.08152 14.3151 5.39946 14.5496 5.63388C14.7842 5.8683 15.1023 6 15.434 6C15.7657 6 16.0838 5.8683 16.3183 5.63388C16.5529 5.39946 16.6846 5.08152 16.6846 4.75ZM10.1812 7C10.9773 7 11.7408 7.31607 12.3037 7.87868C12.8666 8.44129 13.1828 9.20435 13.1828 10C13.1828 10.7956 12.8666 11.5587 12.3037 12.1213C11.7408 12.6839 10.9773 13 10.1812 13C9.38518 13 8.62172 12.6839 8.05882 12.1213C7.49591 11.5587 7.17968 10.7956 7.17968 10C7.17968 9.20435 7.49591 8.44129 8.05882 7.87868C8.62172 7.31607 9.38518 7 10.1812 7Z" fill="black"/>
</svg>
