<svg width="27" height="27" viewBox="0 0 27 27" fill="none" xmlns="http://www.w3.org/2000/svg">
<g clip-path="url(#clip0_4491_69372)">
<path d="M12.6204 25.9765C22.7301 26.5866 29.0815 15.1997 22.969 7.04905C17.346 -0.448725 5.69114 1.2451 2.38153 9.97897C-0.403899 17.3286 4.782 25.5034 12.6204 25.9765ZM11.2499 18.3511C11.0231 18.3142 10.857 18.0864 10.8407 17.8617L10.867 10.3065C10.9888 9.95208 11.3353 9.8503 11.648 10.0544C13.5992 11.3422 15.9395 12.333 17.858 13.634C18.398 14 18.3959 14.3011 17.858 14.666C15.93 15.9738 13.5765 16.9705 11.6148 18.2646C11.4977 18.3152 11.3849 18.3738 11.2504 18.3516L11.2499 18.3511Z" fill="#EF7220"/>
</g>
<defs>
<clipPath id="clip0_4491_69372">
<rect width="27" height="27" fill="white" transform="matrix(1 0 0 -1 -0.000732422 27)"/>
</clipPath>
</defs>
</svg>
