<svg width="23" height="28" viewBox="0 0 23 28" fill="none" xmlns="http://www.w3.org/2000/svg">
<path d="M18.2184 19.2027C17.3392 19.2027 16.5203 19.455 15.8297 19.8889L8.86029 15.0859C8.97218 14.7003 9.03335 14.2937 9.03335 13.8727C9.03335 13.4517 8.97218 13.045 8.86029 12.6595L15.6416 7.98618C16.3692 8.49633 17.2579 8.79732 18.2184 8.79732C20.6794 8.79732 22.6745 6.82795 22.6745 4.39869C22.6745 1.96942 20.6794 0 18.2184 0C15.7574 0 13.7623 1.96936 13.7623 4.39863C13.7623 4.71946 13.798 5.03192 13.8641 5.33321L6.91064 10.1253C6.2319 9.71261 5.43292 9.47408 4.57722 9.47408C2.1162 9.47408 0.121094 11.4434 0.121094 13.8727C0.121094 16.302 2.11614 18.2713 4.57722 18.2713C5.43286 18.2713 6.2319 18.0328 6.91064 17.6202L13.9178 22.4492C13.817 22.8165 13.7623 23.2026 13.7623 23.6014C13.7623 26.0306 15.7574 28 18.2184 28C20.6794 28 22.6745 26.0306 22.6745 23.6014C22.6745 21.1721 20.6794 19.2027 18.2184 19.2027Z" fill="white"/>
</svg>
