<svg width="14" height="14" viewBox="0 0 14 14" fill="none" xmlns="http://www.w3.org/2000/svg">
<path d="M12.1508 9.95394L10.2968 8.65858C10.0545 8.48978 9.77082 8.40048 9.47709 8.40048C9.00981 8.40048 8.57132 8.62965 8.30414 9.01309L7.87375 9.62975C7.15243 9.14612 6.34727 8.47063 5.58011 7.70362C4.81324 6.93646 4.13775 6.13144 3.65398 5.41012L4.2705 4.98001C4.5849 4.76104 4.79451 4.43336 4.8613 4.0569C4.92782 3.68115 4.84398 3.30121 4.62487 2.98666L3.32979 1.13277C2.96508 0.610994 2.27533 0.382664 1.69459 0.59744C1.52523 0.660182 1.3676 0.736897 1.2125 0.834014L0.956219 1.01455C0.892499 1.0643 0.833251 1.11852 0.776238 1.17539C0.463786 1.48784 0.241884 1.88302 0.117239 2.3503C-0.416556 4.35105 0.905634 7.37579 3.40692 9.87694C5.50745 11.9775 8.03082 13.2825 9.99272 13.2826C10.3284 13.2826 10.6453 13.2435 10.934 13.1665C11.4007 13.0417 11.7959 12.8201 12.1083 12.5076C12.1653 12.4508 12.2198 12.3914 12.278 12.3159L12.4582 12.0584C12.5471 11.9163 12.624 11.7584 12.6863 11.5891C12.9046 10.9996 12.6846 10.3272 12.1508 9.95394Z" fill="#EF7220"/>
<path d="M13.5403 0H6.67192C6.51374 0 6.38574 0.128139 6.38574 0.286181V4.29272C6.38574 4.45076 6.51374 4.5789 6.67192 4.5789H7.68781L8.37056 6.03314C8.4178 6.13361 8.51869 6.19775 8.62964 6.19775C8.74059 6.19775 8.84148 6.13361 8.88871 6.03328L9.57174 4.5789H13.5403C13.6985 4.5789 13.8264 4.45076 13.8264 4.29272V0.286181C13.8264 0.128139 13.6985 0 13.5403 0ZM12.0915 3.14799H8.12071C7.96253 3.14799 7.83453 3.01985 7.83453 2.86181C7.83453 2.70377 7.96253 2.57563 8.12071 2.57563H12.0915C12.2497 2.57563 12.3777 2.70377 12.3777 2.86181C12.3777 3.01985 12.2497 3.14799 12.0915 3.14799ZM12.0915 2.00327H8.12071C7.96253 2.00327 7.83453 1.87513 7.83453 1.71709C7.83453 1.55904 7.96253 1.43091 8.12071 1.43091H12.0915C12.2497 1.43091 12.3777 1.55904 12.3777 1.71709C12.3777 1.87513 12.2497 2.00327 12.0915 2.00327Z" fill="#EF7220"/>
</svg>
