<svg width="21" height="16" viewBox="0 0 21 16" fill="none" xmlns="http://www.w3.org/2000/svg">
<path fill-rule="evenodd" clip-rule="evenodd" d="M6.43586 15.999C13.9868 15.999 18.117 9.84288 18.117 4.50495C18.117 4.32971 18.117 4.15578 18.1049 3.98251C18.9084 3.4115 19.6017 2.70253 20.153 1.89131C19.4046 2.21816 18.6092 2.43251 17.7958 2.52702C18.6522 2.02197 19.2936 1.22852 19.6007 0.292261C18.7943 0.762848 17.9128 1.09497 16.9934 1.27317C15.4386 -0.353221 12.8382 -0.43202 11.1843 1.09789C10.1188 2.08435 9.66555 3.55515 9.99672 4.95805C6.696 4.79463 3.62039 3.26081 1.5353 0.737552C0.445736 2.58347 1.00303 4.94405 2.80697 6.12938C2.15363 6.11067 1.51429 5.93759 0.942996 5.62452V5.67579C0.943996 7.59852 2.32171 9.25408 4.23671 9.63507C3.6324 9.79751 2.99807 9.82107 2.38375 9.70392C2.92103 11.35 4.46283 12.4774 6.21875 12.5099C4.76499 13.6342 2.96905 14.2447 1.12009 14.2428C0.793918 14.2418 0.467748 14.223 0.142578 14.1847C2.02056 15.37 4.2047 15.999 6.43586 15.9961" fill="black"/>
</svg>
