<svg width="14" height="13" viewBox="0 0 14 13" fill="none" xmlns="http://www.w3.org/2000/svg">
<path d="M7.31523 0C3.76299 0 0.886326 2.86 0.886326 6.39167C0.886326 7.49667 1.16963 8.60167 1.73625 9.57667L0.69019 12.7183C0.668397 12.7833 0.69019 12.87 0.733776 12.935C0.777362 12.9783 0.84274 13 0.886326 13C0.908119 13 0.929912 13 0.951705 13L4.41678 12.09C5.31029 12.545 6.31276 12.7833 7.33703 12.7833C10.8893 12.7833 13.7659 9.92333 13.7659 6.39167C13.7659 2.86 10.8675 0 7.31523 0ZM11.3251 9.295L10.9329 9.685C10.4534 10.1617 9.90859 10.4 9.32018 10.4C8.53564 10.4 7.68571 9.96667 6.814 9.07833L4.61291 6.86833C3.91554 6.175 3.50147 5.50333 3.34892 4.875C3.17458 4.11667 3.39251 3.40167 4.02451 2.77333L4.41678 2.38333C4.6565 2.145 5.07056 2.08 5.37567 2.23167C5.96407 2.535 6.55248 3.53167 6.61786 3.64C6.74862 3.85667 6.77041 4.07333 6.72682 4.24667C6.68324 4.39833 6.59607 4.50667 6.46531 4.59333C6.29097 4.745 6.07304 4.91833 6.05125 4.96167C5.83332 5.28667 5.85511 5.54667 6.13842 5.82833L7.88185 7.56167C8.16516 7.84333 8.42667 7.865 8.75357 7.64833C8.79715 7.605 8.97149 7.41 9.12405 7.23667C9.23301 7.06333 9.40735 6.955 9.62528 6.955C9.77783 6.955 9.93038 6.99833 10.0611 7.085C10.1701 7.15 11.1726 7.75667 11.4995 8.32C11.652 8.66667 11.5866 9.035 11.3251 9.295Z" fill="#EF7220"/>
</svg>
